<?xml version="1.0" encoding="UTF-8" standalone="no"?>
<!DOCTYPE svg PUBLIC "-//W3C//DTD SVG 1.1//EN"
 "http://www.w3.org/Graphics/SVG/1.1/DTD/svg11.dtd">
<!-- Generated by graphviz version 2.38.0 (20140413.2041)
 -->
<!-- Title: G Pages: 1 -->
<svg width="281pt" height="312pt"
 viewBox="0.00 0.00 281.00 312.00" xmlns="http://www.w3.org/2000/svg" xmlns:xlink="http://www.w3.org/1999/xlink">
<g id="graph0" class="graph" transform="scale(1 1) rotate(0) translate(4 308)">
<title>G</title>
<polygon fill="white" stroke="none" points="-4,4 -4,-308 277,-308 277,4 -4,4"/>
<g id="clust1" class="cluster"><title>cluster_Global</title>
<path fill="none" stroke="gray" d="M20,-8C20,-8 253,-8 253,-8 259,-8 265,-14 265,-20 265,-20 265,-284 265,-284 265,-290 259,-296 253,-296 253,-296 20,-296 20,-296 14,-296 8,-290 8,-284 8,-284 8,-20 8,-20 8,-14 14,-8 20,-8"/>
<text text-anchor="middle" x="136.5" y="-283.2" font-family="Times New Roman,serif" font-size="11.00" fill="gray">Global</text>
</g>
<!-- \\ActiveRecord -->
<g id="node1" class="node"><title>\\ActiveRecord</title>
<polygon fill="none" stroke="black" points="114,-187 16,-187 16,-151 114,-151 114,-187"/>
<text text-anchor="start" x="31" y="-172.2" font-family="Courier,monospace" font-size="11.00">«abstract»</text>
<text text-anchor="start" x="24" y="-160.2" font-family="Courier,monospace" font-size="11.00">ActiveRecord</text>
</g>
<!-- \\Borrower -->
<g id="node2" class="node"><title>\\Borrower</title>
<polygon fill="none" stroke="black" points="257,-268 186,-268 186,-232 257,-232 257,-268"/>
<text text-anchor="middle" x="221.5" y="-247.2" font-family="Courier,monospace" font-size="11.00">Borrower</text>
</g>
<!-- \\Borrower&#45;&gt;\\ActiveRecord -->
<g id="edge1" class="edge"><title>\\Borrower&#45;&gt;\\ActiveRecord</title>
<path fill="none" stroke="black" d="M185.827,-231.822C163.265,-219.993 133.655,-204.47 109.515,-191.814"/>
<polygon fill="none" stroke="black" points="111.039,-188.661 100.557,-187.117 107.789,-194.86 111.039,-188.661"/>
</g>
<!-- \\Cart -->
<g id="node3" class="node"><title>\\Cart</title>
<polygon fill="none" stroke="black" points="248.5,-214 194.5,-214 194.5,-178 248.5,-178 248.5,-214"/>
<text text-anchor="middle" x="221.5" y="-193.2" font-family="Courier,monospace" font-size="11.00">Cart</text>
</g>
<!-- \\Database -->
<g id="node4" class="node"><title>\\Database</title>
<polygon fill="none" stroke="black" points="257,-160 186,-160 186,-124 257,-124 257,-160"/>
<text text-anchor="middle" x="221.5" y="-139.2" font-family="Courier,monospace" font-size="11.00">Database</text>
</g>
<!-- \\Device -->
<g id="node5" class="node"><title>\\Device</title>
<polygon fill="none" stroke="black" points="250,-106 193,-106 193,-70 250,-70 250,-106"/>
<text text-anchor="middle" x="221.5" y="-85.2" font-family="Courier,monospace" font-size="11.00">Device</text>
</g>
<!-- \\Device&#45;&gt;\\ActiveRecord -->
<g id="edge2" class="edge"><title>\\Device&#45;&gt;\\ActiveRecord</title>
<path fill="none" stroke="black" d="M192.878,-102.481C169.741,-114.611 136.303,-132.142 109.563,-146.161"/>
<polygon fill="none" stroke="black" points="107.643,-143.216 100.411,-150.959 110.893,-149.416 107.643,-143.216"/>
</g>
<!-- \\Loan -->
<g id="node6" class="node"><title>\\Loan</title>
<polygon fill="none" stroke="black" points="248.5,-52 194.5,-52 194.5,-16 248.5,-16 248.5,-52"/>
<text text-anchor="middle" x="221.5" y="-31.2" font-family="Courier,monospace" font-size="11.00">Loan</text>
</g>
</g>
</svg>
