<?xml version="1.0" encoding="utf-8"?>
<!-- Generator: Adobe Illustrator 16.0.3, SVG Export Plug-In . SVG Version: 6.00 Build 0)  -->
<!DOCTYPE svg PUBLIC "-//W3C//DTD SVG 1.1//EN" "http://www.w3.org/Graphics/SVG/1.1/DTD/svg11.dtd">
<svg version="1.1" id="Ebene_1" xmlns="http://www.w3.org/2000/svg" xmlns:xlink="http://www.w3.org/1999/xlink" x="0px" y="0px"
	 width="243px" height="77px" viewBox="0 0 243 77" enable-background="new 0 0 243 77" xml:space="preserve">
<g>
	<polygon fill="#9D9C9A" points="54.34,49.826 16.514,54.018 12.317,16.197 50.134,12.01 	"/>
	<polygon fill="#FFFFFF" points="31.411,32.57 12.473,34.843 10.205,15.901 29.141,13.628 	"/>
	<polygon fill="#00948E" points="30.479,31.824 11.543,34.097 9.275,15.155 28.211,12.882 	"/>
	<polygon fill="#FFFFFF" points="34.201,54.9 15.265,57.171 12.997,38.23 31.933,35.957 	"/>
	<polygon fill="#2093CC" points="33.425,55.684 14.489,57.958 12.221,39.016 31.157,36.743 	"/>
	<polygon fill="#FFFFFF" points="56.376,51.953 37.438,54.227 35.169,35.284 54.108,33.011 	"/>
	<polygon fill="#F7D801" points="57.113,53.04 38.174,55.311 35.907,36.369 54.843,34.097 	"/>
	<polygon fill="#FFFFFF" points="54.205,30.206 35.169,28.917 36.469,9.888 55.503,11.181 	"/>
	
		<rect x="36.674" y="9.595" transform="matrix(-0.9965 -0.0836 0.0836 -0.9965 90.6585 42.0584)" fill="#D82566" width="19.072" height="19.072"/>
	<path fill="#1D1D1B" d="M73.199,23.237H71.33l-3.431-4.303H66.26v4.303h-1.444V12.412h2.791c0.621,0,1.144,0.039,1.562,0.107
		c0.416,0.067,0.813,0.223,1.201,0.47c0.368,0.242,0.668,0.557,0.892,0.936c0.223,0.388,0.329,0.862,0.329,1.425
		c0,0.799-0.204,1.463-0.601,1.997c-0.406,0.532-0.95,0.925-1.647,1.182L73.199,23.237z M70.088,15.46
		c0-0.315-0.058-0.595-0.166-0.838c-0.116-0.247-0.29-0.446-0.521-0.601c-0.195-0.135-0.437-0.232-0.708-0.286
		c-0.271-0.059-0.611-0.083-1.008-0.083H66.26v4.081h1.261c0.416,0,0.784-0.034,1.113-0.107c0.331-0.073,0.611-0.223,0.845-0.451
		c0.203-0.203,0.357-0.445,0.465-0.727C70.04,16.168,70.088,15.838,70.088,15.46z"/>
	<path fill="#1D1D1B" d="M72.676,34.242c0,0.543-0.107,1.018-0.311,1.425c-0.203,0.416-0.475,0.755-0.824,1.017
		c-0.406,0.32-0.833,0.548-1.298,0.684c-0.465,0.13-1.075,0.198-1.802,0.198H65.33V26.741h2.878c0.767,0,1.348,0.029,1.725,0.078
		c0.388,0.053,0.756,0.174,1.115,0.359c0.388,0.213,0.668,0.484,0.843,0.818c0.184,0.339,0.272,0.737,0.272,1.188
		c0,0.513-0.136,0.969-0.398,1.367c-0.272,0.406-0.649,0.722-1.115,0.949v0.058c0.639,0.175,1.135,0.489,1.492,0.955
		C72.492,32.973,72.676,33.554,72.676,34.242z M70.67,29.387c0-0.262-0.049-0.484-0.136-0.678c-0.087-0.189-0.224-0.339-0.416-0.455
		c-0.233-0.126-0.495-0.209-0.786-0.238c-0.281-0.029-0.679-0.044-1.182-0.044h-1.376v3.17h1.628c0.455,0,0.784-0.024,0.999-0.068
		c0.211-0.048,0.435-0.145,0.668-0.291c0.213-0.136,0.367-0.32,0.464-0.553C70.622,30.007,70.67,29.726,70.67,29.387z M71.174,34.3
		c0-0.407-0.058-0.741-0.175-1.003c-0.116-0.266-0.349-0.489-0.696-0.674c-0.233-0.121-0.485-0.198-0.747-0.231
		c-0.273-0.035-0.65-0.049-1.154-0.049h-1.628v3.992h1.163c0.63,0,1.134-0.028,1.493-0.087c0.368-0.057,0.688-0.179,0.958-0.367
		c0.272-0.189,0.476-0.402,0.602-0.645C71.116,34.999,71.174,34.688,71.174,34.3z"/>
	<path fill="#1D1D1B" d="M72.782,51.979h-7.559v-1.34l5.796-8.207h-5.534v-1.279h7.153v1.304l-5.854,8.242h5.999L72.782,51.979
		L72.782,51.979z"/>
	<path fill="#1D1D1B" d="M13.49,69.516v-5.414h3.383v0.641h-2.666v1.48h2.481v0.641h-2.481v2.013h2.666v0.64H13.49L13.49,69.516z"/>
	<path fill="#1D1D1B" d="M19.781,69.611c-0.359,0-0.679-0.059-0.979-0.174c-0.292-0.121-0.553-0.297-0.766-0.535
		c-0.213-0.23-0.388-0.526-0.505-0.881c-0.116-0.349-0.175-0.75-0.175-1.205c0-0.457,0.059-0.849,0.175-1.188
		c0.107-0.335,0.282-0.63,0.495-0.877c0.223-0.242,0.475-0.426,0.775-0.558c0.291-0.127,0.62-0.188,0.987-0.188
		c0.184,0,0.349,0.015,0.515,0.038c0.155,0.029,0.301,0.063,0.435,0.102c0.118,0.041,0.243,0.084,0.359,0.137
		c0.126,0.06,0.242,0.115,0.359,0.185v0.868h-0.059c-0.059-0.059-0.136-0.131-0.242-0.214c-0.098-0.082-0.215-0.16-0.359-0.241
		c-0.136-0.074-0.29-0.136-0.455-0.186c-0.156-0.049-0.35-0.073-0.563-0.073c-0.233,0-0.447,0.049-0.65,0.142
		c-0.213,0.092-0.388,0.233-0.542,0.418c-0.156,0.184-0.272,0.415-0.36,0.691c-0.087,0.281-0.125,0.597-0.125,0.945
		c0,0.369,0.049,0.688,0.136,0.953c0.087,0.271,0.213,0.494,0.368,0.68c0.146,0.18,0.329,0.314,0.523,0.406
		c0.213,0.094,0.427,0.136,0.65,0.136c0.213,0,0.406-0.023,0.581-0.076c0.174-0.049,0.329-0.112,0.475-0.194
		c0.126-0.072,0.243-0.15,0.339-0.228c0.098-0.078,0.175-0.146,0.234-0.203h0.048v0.856c-0.117,0.059-0.223,0.111-0.331,0.16
		c-0.106,0.053-0.231,0.103-0.388,0.149c-0.155,0.049-0.301,0.087-0.435,0.115C20.168,69.596,19.994,69.611,19.781,69.611z"/>
	<path fill="#1D1D1B" d="M26.08,69.516h-0.94l-1.968-2.521l-0.318,0.357v2.164h-0.717v-5.414h0.717v2.489l2.219-2.489h0.873
		l-2.239,2.418L26.08,69.516z"/>
	<path fill="#1D1D1B" d="M26.516,69.516v-5.414h3.383v0.641h-2.666v1.48h2.481v0.641h-2.481v2.013h2.666v0.64H26.516L26.516,69.516z
		"/>
	<path fill="#1D1D1B" d="M34.56,69.516h-0.805l-2.393-4.668v4.668h-0.669v-5.414h1.019l2.179,4.289v-4.289h0.669V69.516z"/>
	<path fill="#1D1D1B" d="M35.665,69.516v-5.414h3.381v0.641h-2.664v1.48h2.481v0.641h-2.481v2.013h2.664v0.64H35.665L35.665,69.516z
		"/>
	<path fill="#1D1D1B" d="M44.029,69.516h-0.931l-1.715-2.152h-0.825v2.152h-0.716v-5.414h1.395c0.311,0,0.563,0.02,0.776,0.054
		c0.213,0.034,0.408,0.11,0.601,0.231c0.185,0.127,0.339,0.28,0.445,0.469c0.107,0.195,0.166,0.434,0.166,0.715
		c0,0.397-0.098,0.73-0.301,0.998c-0.204,0.267-0.475,0.466-0.824,0.591L44.029,69.516z M42.469,65.627
		c0-0.159-0.02-0.299-0.079-0.422c-0.059-0.121-0.145-0.223-0.262-0.301c-0.097-0.066-0.224-0.114-0.357-0.146
		c-0.137-0.024-0.301-0.038-0.504-0.038h-0.708v2.039h0.63c0.205,0,0.388-0.02,0.562-0.053c0.155-0.034,0.301-0.111,0.418-0.229
		c0.106-0.098,0.184-0.22,0.232-0.358C42.449,65.98,42.469,65.813,42.469,65.627z"/>
	<path fill="#1D1D1B" d="M45.947,67.475h-2.045V66.82h2.045V67.475z"/>
	<path fill="#1D1D1B" d="M48.264,69.611c-0.388,0-0.727-0.041-0.999-0.121c-0.272-0.082-0.532-0.18-0.775-0.301v-0.9h0.048
		c0.244,0.223,0.504,0.396,0.805,0.518c0.3,0.123,0.592,0.185,0.873,0.185c0.398,0,0.698-0.082,0.901-0.246
		c0.203-0.169,0.309-0.39,0.309-0.659c0-0.213-0.057-0.388-0.165-0.527c-0.106-0.131-0.28-0.231-0.514-0.302
		c-0.165-0.048-0.309-0.087-0.455-0.116c-0.137-0.033-0.311-0.076-0.514-0.131c-0.193-0.048-0.359-0.107-0.503-0.184
		c-0.146-0.074-0.282-0.176-0.398-0.295c-0.107-0.118-0.193-0.258-0.252-0.417c-0.067-0.165-0.097-0.351-0.097-0.563
		c0-0.437,0.174-0.806,0.514-1.101c0.339-0.296,0.775-0.446,1.308-0.446c0.3,0,0.592,0.029,0.864,0.093
		c0.26,0.059,0.512,0.146,0.745,0.258v0.861H49.9c-0.165-0.16-0.388-0.297-0.658-0.412c-0.272-0.121-0.553-0.18-0.844-0.18
		c-0.338,0-0.61,0.077-0.813,0.236c-0.205,0.156-0.311,0.359-0.311,0.617c0,0.228,0.059,0.412,0.185,0.547
		c0.116,0.135,0.301,0.235,0.522,0.3c0.156,0.04,0.339,0.087,0.562,0.136c0.224,0.055,0.407,0.102,0.553,0.146
		c0.369,0.117,0.639,0.285,0.813,0.515c0.175,0.231,0.263,0.519,0.263,0.853c0,0.215-0.049,0.422-0.137,0.625
		c-0.077,0.209-0.203,0.383-0.359,0.523c-0.175,0.16-0.368,0.281-0.591,0.361C48.874,69.568,48.593,69.611,48.264,69.611z"/>
	<path fill="#1D1D1B" d="M53.021,69.611c-0.359,0-0.678-0.059-0.979-0.174c-0.29-0.121-0.553-0.297-0.766-0.535
		c-0.213-0.23-0.388-0.526-0.503-0.881c-0.117-0.349-0.175-0.75-0.175-1.205c0-0.457,0.058-0.849,0.175-1.188
		c0.105-0.335,0.28-0.63,0.494-0.877c0.223-0.242,0.475-0.426,0.775-0.558c0.291-0.127,0.619-0.188,0.989-0.188
		c0.185,0,0.349,0.015,0.514,0.038c0.155,0.029,0.301,0.063,0.437,0.102c0.116,0.041,0.242,0.084,0.358,0.137
		c0.125,0.06,0.243,0.115,0.358,0.185v0.868H54.64c-0.058-0.059-0.134-0.131-0.242-0.214c-0.097-0.082-0.213-0.16-0.359-0.241
		c-0.135-0.074-0.291-0.136-0.456-0.186c-0.154-0.049-0.349-0.073-0.562-0.073c-0.231,0-0.445,0.049-0.648,0.142
		c-0.215,0.092-0.389,0.233-0.543,0.418c-0.155,0.184-0.272,0.415-0.358,0.691c-0.088,0.281-0.126,0.597-0.126,0.945
		c0,0.369,0.047,0.688,0.135,0.953c0.087,0.271,0.213,0.494,0.369,0.68c0.144,0.18,0.329,0.314,0.523,0.406
		c0.211,0.094,0.427,0.136,0.648,0.136c0.213,0,0.408-0.023,0.582-0.076c0.175-0.049,0.33-0.112,0.476-0.194
		c0.126-0.072,0.242-0.15,0.338-0.228c0.096-0.078,0.174-0.146,0.233-0.203h0.048v0.856c-0.116,0.059-0.223,0.111-0.329,0.16
		c-0.107,0.053-0.234,0.103-0.388,0.149c-0.156,0.049-0.301,0.087-0.437,0.115C53.41,69.596,53.235,69.611,53.021,69.611z"/>
	<path fill="#1D1D1B" d="M59.302,69.516h-0.717v-2.652h-2.492v2.652h-0.716v-5.414h0.716v2.121h2.492v-2.121h0.717V69.516z"/>
	<path fill="#1D1D1B" d="M62.296,69.625c-0.318,0-0.601-0.038-0.834-0.127c-0.242-0.081-0.445-0.203-0.609-0.371
		c-0.185-0.186-0.321-0.413-0.398-0.676c-0.077-0.266-0.116-0.586-0.116-0.973v-3.377h0.716v3.377c0,0.252,0.021,0.459,0.049,0.629
		c0.029,0.17,0.097,0.324,0.184,0.461c0.097,0.146,0.233,0.258,0.397,0.33c0.167,0.078,0.37,0.109,0.611,0.109
		c0.224,0,0.427-0.031,0.602-0.109c0.174-0.072,0.3-0.186,0.406-0.33c0.088-0.142,0.146-0.291,0.175-0.461
		c0.039-0.164,0.059-0.368,0.059-0.609v-3.396h0.716v3.377c0,0.377-0.038,0.697-0.116,0.97c-0.077,0.267-0.213,0.493-0.408,0.68
		c-0.164,0.168-0.368,0.295-0.599,0.377C62.907,69.587,62.625,69.625,62.296,69.625z"/>
	<path fill="#1D1D1B" d="M68.422,69.516h-3.13v-5.414h0.716v4.773h2.414V69.516z"/>
	<path fill="#1D1D1B" d="M68.994,69.516v-5.414h3.382v0.641H69.71v1.48h2.481v0.641H69.71v2.013h2.666v0.64H68.994L68.994,69.516z"
		/>
</g>
</svg>
